<?xml version="1.0" encoding="utf-8"?>
<!-- Generator: Adobe Illustrator 27.0.1, SVG Export Plug-In . SVG Version: 6.00 Build 0)  -->
<svg version="1.1" id="Capa_1" xmlns="http://www.w3.org/2000/svg" xmlns:xlink="http://www.w3.org/1999/xlink" x="0px" y="0px"
	 viewBox="0 0 920.6005 1024" style="enable-background:new 0 0 920.6005 1024;" xml:space="preserve">
<style type="text/css">
	.st0{opacity:0.7;}
	.st1{fill:#FFFFFF;}
	.st2{opacity:0.8;}
	.st3{opacity:0.72;}
	.st4{opacity:0.77;}
	.st5{opacity:0.9;}
	.st6{opacity:0.4;}
	.st7{opacity:0.56;}
</style>
<g>
	<g>
		<g class="st0">
			<polygon class="st1" points="555.8265,0 476.4226,19.8508 516.1245,99.2547 			"/>
		</g>
		<g class="st2">
			<polygon class="st1" points="59.1131,257.5377 79.4039,337.4659 138.9568,297.7641 			"/>
		</g>
		<g class="st0">
			<polygon class="st1" points="218.3604,59.5526 238.2114,119.1055 357.3172,178.6583 317.6151,59.5526 			"/>
		</g>
		<g>
			<polygon class="st1" points="79.4039,337.4659 0,595.5279 138.9568,297.7641 			"/>
		</g>
		<g class="st3">
			<polygon class="st1" points="138.9568,297.7641 0,595.5279 19.851,595.5279 218.3604,436.7206 357.3172,238.2112 			"/>
		</g>
		<g class="st4">
			<polygon class="st1" points="218.3604,436.7206 397.019,436.7206 357.3172,238.2112 			"/>
		</g>
		<g>
			<polygon class="st1" points="516.1245,99.2547 397.019,436.7206 456.5716,595.5279 476.4226,595.5279 575.6773,337.4659 			"/>
		</g>
		<g class="st5">
			<polygon class="st1" points="357.3172,238.2112 397.019,436.7206 516.1245,99.2547 			"/>
		</g>
		<g class="st6">
			<polygon class="st1" points="357.3172,178.6583 357.3172,238.2112 516.1245,99.2547 			"/>
		</g>
		<g>
			<path class="st1" d="M476.4226,19.8508H357.3172l-39.7021,39.7018l39.7021,119.1057l158.8073-79.4037L476.4226,19.8508z
				 M377.168,79.4036c-10.9634,0-19.8508-8.8876-19.8508-19.851s8.8874-19.8508,19.8508-19.8508
				c10.9634,0,19.851,8.8874,19.851,19.8508S388.1313,79.4036,377.168,79.4036z"/>
		</g>
		<g class="st7">
			<polygon class="st1" points="143.1349,535.9753 198.5094,595.5279 218.3604,595.5279 212.1561,476.4224 			"/>
		</g>
		<g class="st7">
			<polygon class="st1" points="579.8472,407.1298 535.9755,535.975 575.6773,595.5279 595.5284,595.5281 			"/>
		</g>
	</g>
	<path class="st1" d="M172.245,905.6116v18.8105h-11.2547h-3.3156h-32.6434v-17.52c0-17.1484,8.6678-24.5258,21.7603-24.5258
		c4.7934,0,10.6958,1.2935,14.1987,2.9498v-7.7432c-3.8716-1.6622-9.4053-2.7683-14.5674-2.7683
		c-16.2266,0-29.322,10.8802-29.322,30.7969v18.8105h-14.5674v7.193h14.7547v90.7256h7.7431v-90.7256h32.6434h3.3156h11.4362
		v90.7256h7.746v-90.7256h29.5064v-7.193h-29.5064v-17.52c0-17.1484,8.6679-24.5258,21.7603-24.5258
		c4.7963,0,10.6958,1.2935,14.1987,2.9498v-7.7432c-3.8716-1.6622-9.4024-2.7683-14.5674-2.7683
		C185.3375,874.8146,172.245,885.6948,172.245,905.6116z M233.2828,1022.3408h7.7431v-97.9186h-7.7431V1022.3408z
		 M140.3419,680.7318h-21.7603v147.7075h21.7603V680.7318z M79.6611,744.3506c-7.0057-11.4332-19.9109-18.8091-34.1096-18.8091
		C21.9476,725.5415,0,746.3785,0,776.0693c0,30.2424,21.5789,50.5264,45.1829,50.5264c14.1987,0,26.3664-7.1915,33.1907-18.0717
		v12.9096c0,17.1484-14.0172,28.5817-31.9031,28.5817c-12.7238,0-26.0036-5.5322-36.3277-14.5674v21.9447
		c10.5115,7.5588,24.16,12.1707,37.8026,12.1707c28.766,0,52.1885-17.8888,52.1885-51.0809v-90.7271H82.0607L79.6611,744.3506z
		 M50.3449,807.0491c-16.2295,0-28.5846-13.2783-28.5846-30.7955c0-17.52,12.3551-30.9813,28.5846-30.9813
		c16.2237,0,28.5787,12.9081,28.5787,30.4282C78.9237,793.5864,66.5686,807.0491,50.3449,807.0491z M237.1544,882.7451
		c-3.5028,0-6.0839,2.5811-6.0839,6.0868c0,3.5029,2.581,6.0839,6.0839,6.0839c3.6872,0,6.2712-2.581,6.2712-6.0839
		C243.4256,885.3261,240.8416,882.7451,237.1544,882.7451z M911.5641,811.1065c-12.1678,0-21.0229-5.9025-21.0229-20.2855v-44.6268
		h27.8472v-18.439h-27.8472v-23.4196h-21.017v23.4196h-15.1234v18.439h14.7546v45.733c0,23.9727,14.1987,38.1728,37.984,38.1728
		c6.0869,0,10.6987-0.7389,13.4612-1.292v-18.6233C917.2822,810.7378,914.3325,811.1065,911.5641,811.1065z M502.3491,828.4393
		h21.7603V680.7318h-21.7603V828.4393z M806.631,725.3571c-26.9224,0-49.4202,20.8371-49.4202,53.1089
		c0,30.9813,19.9167,52.3715,52.926,52.3715c12.9052,0,24.7101-3.5043,35.0343-10.5115v-19.5466
		c-10.1428,7.929-21.3916,11.9863-32.822,11.9863c-17.7044,0-31.1656-10.3271-34.3027-28.03h72.474
		c0.3687-2.5825,0.556-5.3479,0.556-8.4821C851.0765,742.8757,830.9724,725.3571,806.631,725.3571z M778.0464,770.1669
		c2.5869-16.5953,14.7546-26.7381,28.4031-26.7381c12.5365,0,23.4167,8.8522,23.9727,26.7381H778.0464z M293.4018,811.1065
		c7.193,12.355,20.104,19.731,34.4841,19.731c23.6039,0,45.733-20.4684,45.733-52.7402s-21.3916-52.7402-44.9955-52.7402
		c-13.6427,0-27.2912,7.0071-33.9281,18.9935v-63.6188h-21.7603v147.7075h18.0732L293.4018,811.1065z M322.7238,745.2724
		c16.411,0,28.9533,13.6456,28.9533,33.0092c0,19.1779-12.5423,32.6406-28.7719,32.6406c-16.2237,0-28.5787-13.4627-28.5787-32.8249
		C294.3265,758.918,306.6815,745.2724,322.7238,745.2724z M46.8392,922.7599C21.0229,922.7599,0,943.6014,0,973.4736
		S21.2043,1024,46.8392,1024c25.6319,0,46.6519-20.6542,46.6519-50.5264S72.4711,922.7599,46.8392,922.7599z M46.8392,1016.6256
		c-19.9167,0-39.096-15.8608-39.096-43.152s18.9949-43.152,39.096-43.152c19.9138,0,38.9088,15.8608,38.9088,43.152
		C85.7479,1000.5804,66.753,1016.6256,46.8392,1016.6256z M551.7751,714.4769v13.2783h-14.1987v18.439h14.1987v82.2451h21.7604
		v-82.2451h27.8412v-18.439h-28.0286v-10.8801c0-12.3551,6.2682-17.8888,18.0731-17.8888c5.1621,0,10.8802,1.292,14.5674,2.5825
		V682.391c-5.7181-1.8436-11.6176-2.9512-17.8859-2.9512C565.6051,679.4398,551.7751,695.1147,551.7751,714.4769z
		 M618.8998,828.4393h21.7604V680.7318h-21.7604V828.4393z M488.8352,997.657c0-4.1613-3.1195-7.1696-8.8142-7.1696h-6.0751v22.5505
		h3.8862v-8.3752h0.4389l6.8418,8.3752h5.0333l-7.6056-8.7586C485.7157,1003.7321,488.8352,1001.3237,488.8352,997.657z
		 M477.8321,1001.3237v-7.2252h1.5334c3.2307,0,5.4196,0.8779,5.4196,3.5028c0,2.4084-1.9724,3.7224-5.0919,3.7224H477.8321z
		 M480.8433,980.7427c-11.9863,0-21.4004,9.6335-21.4004,21.2394c0,11.6001,9.4141,21.2336,21.4004,21.2336
		c11.9308,0,21.456-9.6335,21.456-21.2336C502.2993,990.3762,492.7741,980.7427,480.8433,980.7427z M480.8433,1019.1656
		c-9.7418,0-17.2947-7.7723-17.2947-17.1835c0-9.417,7.5529-17.2421,17.2947-17.2421c9.6891,0,17.2947,7.8251,17.2947,17.2421
		C498.1381,1011.3933,490.5325,1019.1656,480.8433,1019.1656z M703.7288,725.3571c-26.9224,0-49.4202,20.8371-49.4202,53.1089
		c0,30.9813,19.9109,52.3715,52.9201,52.3715c12.9111,0,24.7101-3.5043,35.0401-10.5115v-19.5466
		c-10.1427,7.929-21.3916,11.9863-32.8278,11.9863c-17.6986,0-31.1598-10.3271-34.2969-28.03h72.474
		c0.3687-2.5825,0.5502-5.3479,0.5502-8.4821C748.1684,742.8757,728.0703,725.3571,703.7288,725.3571z M675.1442,770.1669
		c2.5811-16.5953,14.7547-26.7381,28.3973-26.7381c12.5423,0,23.4225,8.8522,23.9727,26.7381H675.1442z M206.9106,725.3571
		c-28.9474,0-51.2638,22.1291-51.2638,52.7402s22.1291,52.7402,51.2638,52.7402s51.0824-22.1291,51.0824-52.7402
		S236.0453,725.3571,206.9106,725.3571z M206.9106,810.9222c-14.9361,0-29.3162-11.9863-29.3162-32.8249
		s14.3801-32.8249,29.3162-32.8249c14.9361,0,29.1348,11.9863,29.1348,32.8249S221.8466,810.9222,206.9106,810.9222z
		 M263.1609,973.2892c0,29.5064,20.8385,50.7108,47.3922,50.7108c9.5897,0,18.8106-2.2123,26.3694-6.8243v-8.6649
		c-8.4806,6.2712-18.6233,8.1148-26.3694,8.1148c-20.6513,0-39.6462-16.5983-39.6462-43.3364
		c0-26.1879,18.8076-42.9676,39.2775-42.9676c9.2209,0,18.0731,1.8436,26.7381,8.1147v-8.6678
		c-8.2962-5.3464-17.5172-7.0086-26.5537-7.0086C283.8151,922.7599,263.1609,944.5203,263.1609,973.2892z M393.9131,922.7599
		c-23.6039,0-45.3643,19.1793-45.3643,50.898c0,30.794,19.1793,50.342,46.6548,50.342c12.7238,0,24.8945-4.0559,35.2216-12.5394
		v-9.0336c-10.5114,9.9554-23.0509,14.1987-34.8528,14.1987c-22.1291,0-37.9869-15.3077-39.2775-40.5709h77.6361
		c0.1814-1.1062,0.3687-2.7654,0.3687-4.6119C434.2997,939.3582,415.6735,922.7599,393.9131,922.7599z M356.4793,969.049
		c1.6592-24.16,18.8076-38.9117,37.4339-38.9117c16.5953,0,32.2718,12.3551,32.6405,38.9117H356.4793z M465.2781,828.4393h18.0732
		v-100.684h-18.0732l-2.3996,17.3328c-7.1871-12.355-20.0982-19.7309-34.847-19.7309c-23.0538,0-45.1828,20.8371-45.1828,52.9245
		c0,31.7188,22.1291,52.5558,45.1828,52.5558c14.7488,0,27.6599-7.3759,34.847-19.731L465.2781,828.4393z M433.5623,810.9222
		c-16.411,0-28.9533-13.4627-28.9533-32.8249c0-19.1793,12.5423-32.8249,28.9533-32.8249c16.0422,0,28.5787,13.6456,28.5787,32.8249
		C462.141,797.4595,449.6045,810.9222,433.5623,810.9222z"/>
</g>
</svg>
